<svg id="Layer_1" enable-background="new 0 0 480 480" fill="#969090" height="512" viewBox="0 0 480 480" width="512" xmlns="http://www.w3.org/2000/svg"><path d="m319.427 342.172c-11.782 0-22.472-6-28.594-16.051-2.299-3.774-7.223-4.971-10.993-2.671-3.773 2.298-4.97 7.22-2.671 10.993 4.257 6.991 10.021 12.635 16.732 16.674l-8.291 37.627-19.989-23.017c3.626-4.169 2.758-9.041-.372-11.764-3.331-2.897-8.386-2.548-11.286.788l-14.066 16.176-35.432-39.369c3.015-5.789 4.842-12.143 5.365-18.765 68.573 20.184 137.17-31.57 137.17-102.663 0-67.85.083-66.77-.192-69.552-1.053-11.02-16.986-9.53-15.923 1.569.179 1.814.115 3.401.115 67.982 0 50.178-40.822 91-91 91s-91-40.822-91-91c0-18.022-.192-31.978-.255-42.443-.162-26.256 24.117-46.203 50.39-39.907 37.553 9.005 51.719 32.01 99.482 29.785 4.413-.207 7.823-3.952 7.616-8.366-.207-4.413-3.934-7.829-8.366-7.616-42.955 2.025-54.365-19.616-95.001-29.361-36.46-8.744-70.344 18.997-70.121 55.564.054 8.506.166 17.822.222 29.296-5.326-2.777-8.968-8.285-8.968-14.621v-74.96c0-50.453 41.047-91.5 91.5-91.5h50c50.453 0 91.5 41.047 91.5 91.5v74.96c0 4.418 3.582 8 8 8s8-3.582 8-8v-74.96c.001-59.275-48.224-107.5-107.499-107.5h-50c-59.275 0-107.5 48.225-107.5 107.5v74.96c0 15.305 10.708 28.167 25.081 31.621 1.491 40.861 25.999 75.947 60.919 92.644v2.105c0 8.913-3.476 17.287-9.787 23.581-11.192 11.161-25.298 9.761-23.642 9.761-45.637 0-82.571 36.93-82.571 82.571v47.257c0 4.418 3.582 8 8 8s8-3.582 8-8v-47.257c0-36.795 29.775-66.571 66.573-66.571 3.501 0 6.996-.372 10.452-1.111l11.163 50.661c1.414 6.418 9.556 8.472 13.853 3.523l28.786-33.147c9.011 10.012 9.255 10.34 9.925 10.939 2.776 2.413 6.844 2.606 9.818.521 1.013-.704.461-.151 10.45-11.639l28.941 33.326c4.305 4.96 12.442 2.881 13.853-3.523l11.163-50.662c3.389.72 6.883 1.112 10.451 1.112 36.795 0 66.573 29.773 66.573 66.571v47.257c0 4.418 3.582 8 8 8s8-3.582 8-8v-47.257c-.001-45.638-36.933-82.573-82.574-82.571zm-125.037 46.572-8.293-37.638c3.05-1.841 5.911-4.035 8.548-6.543l19.397 21.552zm91.764-159.251c-15.38 1.622-15.376-9.829-28.163-13.208-5.584-1.476-11.617-.766-17.991 2.104-6.375-2.872-12.408-3.579-17.99-2.104-12.81 3.385-12.78 14.837-28.164 13.208-6.158-.664-10.722 5.682-8.102 11.325.398.856 9.997 21.009 31.682 23.059 9.593.905 17.451-2.144 22.574-5.068 6.966 3.975 14.717 5.808 22.574 5.068 21.685-2.05 31.283-22.202 31.682-23.059 2.613-5.628-1.917-11.979-8.102-11.325zm-41.181 13.439c-2.913-2.312-7.033-2.311-9.945 0-7.566 6.004-18.113 7.306-26.773.699 16.033-5.741 13.534-17.547 27.741-9.329 2.477 1.434 5.533 1.434 8.01 0 14.175-8.194 11.766 3.609 27.741 9.329-8.589 6.551-19.145 5.358-26.774-.699z"/></svg>