 <svg
              id="Capa_1"
              enable-background="new 0 0 512 512"
              height="512"
              viewBox="0 0 512 512"
              width="512"
              xmlns="http://www.w3.org/2000/svg"
            >
              <g>
                <path d="m0 60h30v30h-30z" fill="rgba(245, 245, 245, 0.7)" />
                <path d="m30 452h30v30h-30z" fill=" rgba(245, 245, 245, 0.9)" />
                <path d="m60 30h30v30h-30z" fill="rgba(245, 245, 245, 0.6)" />
                <path d="m482 90h30v30h-30z" fill=" rgba(245, 245, 245, 0.80)" />
                <path d="m482 482h30v30h-30z" fill=" rgba(245, 245, 245, 0.90)" />
                <path d="m422 452h30v30h-30z" fill="rgba(245, 245, 245, 0.584)" />
                <path d="m422 0h30v30h-30z" fill=" rgba(245, 245, 245, 0.40)" />
                <path
                  d="m442 256c0-21.126 16.149-44.579 9.936-63.659-6.432-19.753-33.514-29.154-45.502-45.609-12.102-16.612-12.777-45.229-29.389-57.331-16.456-11.987-43.825-3.887-63.579-10.319-19.08-6.214-36.34-29.082-57.466-29.082l-20 206 20 206c21.126 0 38.386-22.868 57.466-29.082 19.753-6.432 47.123 1.668 63.578-10.319 16.612-12.101 17.288-40.718 29.389-57.331 11.987-16.456 39.07-25.857 45.502-45.61 6.214-19.079-9.935-42.532-9.935-63.658z"
                  fill="rgba(245, 245, 245, 0.784)"
                />
                <path
                  d="m198.534 79.082c-19.753 6.432-47.123-1.668-63.578 10.319-16.612 12.101-17.288 40.718-29.389 57.331-11.987 16.456-39.07 25.857-45.502 45.61-6.214 19.079 9.935 42.532 9.935 63.658s-16.149 44.579-9.936 63.659c6.432 19.753 33.515 29.154 45.502 45.61 12.102 16.612 12.777 45.229 29.389 57.331 16.456 11.988 43.825 3.887 63.579 10.319 19.08 6.213 36.34 29.081 57.466 29.081v-412c-21.126 0-38.386 22.868-57.466 29.082z"
                  fill="rgba(245, 245, 245, 0.804)"
                />
                <path
                  d="m256 120-20 136 20 136c74.991 0 136-61.01 136-136s-61.009-136-136-136z"
                  fill="rgba(245, 245, 245, 0.684)"
                />
                <path
                  d="m120 256c0 74.99 61.009 136 136 136v-272c-74.991 0-136 61.01-136 136z"
                  fill="rgba(245, 245, 245, 0.90)"
                />
              </g>
            </svg>